<svg xmlns="http://www.w3.org/2000/svg" viewBox="0 0 112.05 79.01"><defs><style>.cls-1{fill:#fff1da;}.cls-2{fill:#d5d6db;}.cls-3{fill:#029bc5;}.cls-4{fill:#e1e6e9;}.cls-5{fill:#3a556a;}</style></defs><title>Asset 1plane-cat</title><g id="Layer_2" data-name="Layer 2"><g id="Layer_1-2" data-name="Layer 1"><path class="cls-1" d="M22.81,31a18,18,0,0,0,18,18h27a5,5,0,0,0,5-5V10a10,10,0,0,0-10-10h-35a5,5,0,0,0-5,5Z"/><path class="cls-2" d="M71.4,44.94a12,12,0,0,0-3.89,1.66c-3.14,2-5,4.85-4.08,6.38s4.15,1.13,7.29-.87a12.42,12.42,0,0,0,3.19-2.85,1.59,1.59,0,0,0,.19-1.73l-1.15-2A1.42,1.42,0,0,0,71.4,44.94Z"/><path class="cls-2" d="M63.51,18a8.73,8.73,0,0,0-2.82,1.2c-2.27,1.45-3.6,3.52-3,4.62s3,.82,5.29-.63a8.79,8.79,0,0,0,2.31-2.07,1.12,1.12,0,0,0,.14-1.24l-.84-1.44A1,1,0,0,0,63.51,18Z"/><path class="cls-3" d="M50.7,19.08a1,1,0,0,0-.66.16l-5.35,3.41a1,1,0,0,0-.4,1.22.77.77,0,0,0,.21.23l13.18,9.08L75.52,21.82Z"/><path class="cls-4" d="M107.07,17.79,58.54,48.35,29.83,59.77,15.19,62.68,13.57,60,94.47,10a18,18,0,0,1,7.78-2.66,14.31,14.31,0,0,1,3.47.12,9.8,9.8,0,0,1,2.8.86c1,.48,2.8.53,3.39,1.48C111.91,9.8,113.31,14.18,107.07,17.79Z"/><path class="cls-3" d="M59.18,44.3l-21,33.47A.8.8,0,0,0,38.54,79a1,1,0,0,0,.9-.12l5.35-3.39A10.66,10.66,0,0,0,47.46,73L88.18,25.14Z"/><path class="cls-3" d="M6.21,43.19a1.32,1.32,0,0,0-1.12.16L.67,46.17a1.27,1.27,0,0,0-.54,1.64,1,1,0,0,0,.23.26L12.73,58l13-8.12Z"/><path class="cls-3" d="M16.88,59.77,10.22,69.1a.26.26,0,0,0,0,.38.31.31,0,0,0,.32,0l4.13-2.61a.3.3,0,0,0,.08-.08l9.74-11.83Z"/><path class="cls-3" d="M104.92,7.86a14.13,14.13,0,0,0-3.57-.12,12,12,0,0,0-2.18,5.38.57.57,0,0,0,.67.6.77.77,0,0,0,.36-.12l7.6-4.85A10,10,0,0,0,104.92,7.86Z"/><path class="cls-2" d="M88.34,16.77l5-3.14,4.62,7.87-5,3.13Z"/><path class="cls-5" d="M85.22,19.88a1.26,1.26,0,0,0-.54,1.63l.49.84a1.18,1.18,0,0,0,1.65.2A1.26,1.26,0,0,0,87.34,21l-.49-.84A1.14,1.14,0,0,0,85.22,19.88Z"/><path class="cls-5" d="M80.75,22.65a1.24,1.24,0,0,0-.53,1.63l.49.84a1.16,1.16,0,0,0,1.65.2,1.26,1.26,0,0,0,.52-1.57l-.5-.84A1.14,1.14,0,0,0,80.75,22.65Z"/><path class="cls-5" d="M76.28,25.42a1.26,1.26,0,0,0-.53,1.63l.49.84a1.17,1.17,0,0,0,1.66.2,1.25,1.25,0,0,0,.51-1.57l-.49-.84A1.15,1.15,0,0,0,76.28,25.42Z"/><path class="cls-5" d="M71.82,28.2a1.23,1.23,0,0,0-.53,1.62l.49.84a1.16,1.16,0,0,0,1.65.2A1.25,1.25,0,0,0,74,29.29l-.5-.84A1.14,1.14,0,0,0,71.82,28.2Z"/><path class="cls-5" d="M67.36,31a1.26,1.26,0,0,0-.54,1.63l.5.84a1.14,1.14,0,0,0,1.63.25,1.23,1.23,0,0,0,.53-1.62L69,31.22A1.14,1.14,0,0,0,67.36,31Z"/><path class="cls-5" d="M62.89,33.74a1.25,1.25,0,0,0-.53,1.63l.49.84a1.15,1.15,0,0,0,1.64.25A1.25,1.25,0,0,0,65,34.84L64.53,34a1.16,1.16,0,0,0-1.64-.26Z"/><path class="cls-5" d="M58.43,36.51a1.26,1.26,0,0,0-.54,1.63l.5.84a1.15,1.15,0,0,0,1.63.26,1.24,1.24,0,0,0,.53-1.63l-.49-.84A1.14,1.14,0,0,0,58.43,36.51Z"/><path class="cls-5" d="M54,39.29a1.24,1.24,0,0,0-.53,1.62l.49.85a1.16,1.16,0,0,0,1.64.25,1.26,1.26,0,0,0,.53-1.63l-.49-.84A1.15,1.15,0,0,0,54,39.29Z"/><path class="cls-5" d="M49.5,42.06A1.24,1.24,0,0,0,49,43.69l.49.84a1.14,1.14,0,0,0,1.63.25,1.25,1.25,0,0,0,.54-1.62l-.5-.85A1.14,1.14,0,0,0,49.5,42.06Z"/><path class="cls-5" d="M45,44.83a1.25,1.25,0,0,0-.53,1.63h0l.49.84a1.15,1.15,0,0,0,1.64.25,1.25,1.25,0,0,0,.53-1.62l-.49-.84A1.16,1.16,0,0,0,45,44.83Z"/><path class="cls-5" d="M40.57,47.6A1.24,1.24,0,0,0,40,49.23h0l.49.84a1.14,1.14,0,0,0,1.63.25,1.24,1.24,0,0,0,.54-1.62l-.5-.84A1.14,1.14,0,0,0,40.57,47.6Z"/></g></g></svg>