<?xml version="1.0" encoding="utf-8"?>
<!-- Generator: Adobe Illustrator 24.0.1, SVG Export Plug-In . SVG Version: 6.00 Build 0)  -->
<svg version="1.1" id="Layer_1" xmlns="http://www.w3.org/2000/svg" xmlns:xlink="http://www.w3.org/1999/xlink" x="0px" y="0px"
	 viewBox="0 0 168 154" style="enable-background:new 0 0 168 154;" xml:space="preserve">
<style type="text/css">
	.st0{fill:#FFF1DA;}
	.st1{fill:#D5D6DB;}
	.st2{fill:#029BC5;}
	.st3{fill:#E1E6E9;}
	.st4{fill:#3A556A;}
</style>
<path class="st0" d="M-151.2,205.8c0,9.9,8.1,18,18,18h27c2.8,0,5-2.2,5-5v-34c0-5.5-4.5-10-10-10h-35c-2.8,0-5,2.2-5,5V205.8z"/>
<path class="st1" d="M-102.6,219.7c-1.4,0.3-2.7,0.9-3.9,1.7c-3.1,2-5,4.9-4.1,6.4c0.9,1.5,4.2,1.1,7.3-0.9c1.2-0.8,2.3-1.7,3.2-2.9
	c0.4-0.5,0.5-1.2,0.2-1.7l-1.2-2C-101.4,219.8-102,219.6-102.6,219.7z"/>
<path class="st1" d="M-110.5,192.7c-1,0.2-1.9,0.6-2.8,1.2c-2.3,1.5-3.6,3.5-3,4.6c0.6,1.1,3,0.8,5.3-0.6c0.9-0.6,1.7-1.3,2.3-2.1
	c0.3-0.4,0.3-0.9,0.1-1.2l-0.8-1.4C-109.6,192.8-110.1,192.6-110.5,192.7z"/>
<path class="st2" d="M-123.3,193.8c-0.2,0-0.5,0-0.7,0.2l-5.3,3.4c-0.4,0.3-0.6,0.8-0.4,1.2c0.1,0.1,0.1,0.2,0.2,0.2l13.2,9.1
	l17.8-11.4L-123.3,193.8z"/>
<path class="st3" d="M-67,192.6l-48.5,30.6l-28.7,11.4l-14.6,2.9l-1.6-2.7l80.9-49.9c2.4-1.5,5.1-2.4,7.8-2.7
	c1.2-0.1,2.3-0.1,3.5,0.1c1,0.2,1.9,0.4,2.8,0.9c1,0.5,2.8,0.5,3.4,1.5C-62.1,184.6-60.7,188.9-67,192.6z"/>
<path class="st2" d="M-114.9,219.1l-21,33.5c-0.3,0.5-0.1,1,0.3,1.2c0.3,0.1,0.6,0.1,0.9-0.1l5.3-3.4c1-0.7,1.9-1.5,2.7-2.4
	l40.7-47.9L-114.9,219.1z"/>
<path class="st2" d="M-167.8,217.9c-0.4-0.1-0.8-0.1-1.1,0.2l-4.4,2.8c-0.6,0.4-0.8,1.1-0.5,1.6c0.1,0.1,0.1,0.2,0.2,0.3l12.4,9.9
	l13-8.1L-167.8,217.9z"/>
<path class="st2" d="M-157.2,234.5l-6.7,9.3c-0.1,0.1-0.1,0.3,0.1,0.4c0.1,0.1,0.2,0,0.3,0l4.1-2.6c0,0,0.1,0,0.1-0.1l9.7-11.8
	L-157.2,234.5z"/>
<path class="st2" d="M-69.1,182.6c-1.2-0.2-2.4-0.2-3.6-0.1c-1.2,1.7-1.9,3.5-2.2,5.4c0,0.4,0.3,0.6,0.7,0.6c0.1,0,0.2-0.1,0.4-0.1
	l7.6-4.8C-67.1,183.1-68.1,182.8-69.1,182.6z"/>
<path class="st1" d="M-85.7,191.5l5-3.1l4.6,7.9l-5,3.1L-85.7,191.5z"/>
<path class="st4" d="M-88.8,194.6c-0.6,0.4-0.8,1.1-0.5,1.6l0.5,0.8c0.3,0.5,1.1,0.6,1.7,0.2c0.6-0.4,0.8-1.1,0.5-1.6l-0.5-0.8
	C-87.5,194.4-88.2,194.3-88.8,194.6z"/>
<path class="st4" d="M-93.3,197.4c-0.6,0.4-0.8,1.1-0.5,1.6l0.5,0.8c0.3,0.5,1.1,0.6,1.7,0.2c0.6-0.4,0.8-1.1,0.5-1.6l-0.5-0.8
	C-92,197.1-92.7,197-93.3,197.4z"/>
<path class="st4" d="M-97.8,200.2c-0.6,0.4-0.8,1.1-0.5,1.6l0.5,0.8c0.3,0.5,1.1,0.6,1.7,0.2c0.6-0.4,0.8-1.1,0.5-1.6l-0.5-0.8
	C-96.4,199.9-97.2,199.8-97.8,200.2z"/>
<path class="st4" d="M-102.2,203c-0.6,0.4-0.8,1.1-0.5,1.6l0.5,0.8c0.3,0.5,1.1,0.6,1.7,0.2c0.6-0.4,0.8-1.1,0.5-1.6l-0.5-0.8
	C-100.9,202.7-101.6,202.6-102.2,203z"/>
<path class="st4" d="M-106.7,205.7c-0.6,0.4-0.8,1.1-0.5,1.6l0.5,0.8c0.3,0.5,1,0.6,1.6,0.3c0.6-0.4,0.8-1.1,0.5-1.6l-0.5-0.8
	C-105.4,205.5-106.1,205.3-106.7,205.7C-106.7,205.7-106.7,205.7-106.7,205.7z"/>
<path class="st4" d="M-111.1,208.5c-0.6,0.4-0.8,1.1-0.5,1.6l0.5,0.8c0.3,0.5,1,0.6,1.6,0.3c0.6-0.4,0.8-1.1,0.5-1.6l-0.5-0.8
	C-109.8,208.2-110.5,208.1-111.1,208.5C-111.1,208.5-111.1,208.5-111.1,208.5z"/>
<path class="st4" d="M-115.6,211.3c-0.6,0.4-0.8,1.1-0.5,1.6l0.5,0.8c0.3,0.5,1,0.6,1.6,0.3c0.6-0.4,0.8-1.1,0.5-1.6l-0.5-0.8
	C-114.3,211-115,210.9-115.6,211.3z"/>
<path class="st4" d="M-120.1,214c-0.6,0.4-0.8,1.1-0.5,1.6l0.5,0.8c0.3,0.5,1,0.6,1.6,0.3c0.6-0.4,0.8-1.1,0.5-1.6l-0.5-0.8
	C-118.7,213.8-119.5,213.7-120.1,214z"/>
<path class="st4" d="M-124.5,216.8c-0.6,0.4-0.8,1.1-0.5,1.6l0.5,0.8c0.3,0.5,1,0.6,1.6,0.3c0.6-0.4,0.8-1.1,0.5-1.6l-0.5-0.8
	C-123.2,216.6-123.9,216.4-124.5,216.8z"/>
<path class="st4" d="M-129,219.6c-0.6,0.4-0.8,1.1-0.5,1.6l0,0l0.5,0.8c0.3,0.5,1,0.6,1.6,0.3c0.6-0.4,0.8-1.1,0.5-1.6l-0.5-0.8
	C-127.7,219.3-128.4,219.2-129,219.6z"/>
<path class="st4" d="M-133.5,222.4c-0.6,0.4-0.8,1.1-0.5,1.6l0,0l0.5,0.8c0.3,0.5,1,0.6,1.6,0.3c0.6-0.4,0.8-1.1,0.5-1.6l-0.5-0.8
	C-132.1,222.1-132.9,222-133.5,222.4z"/>
<image style="overflow:visible;" width="314" height="461" xlink:href="FA82A76A.png"  transform="matrix(1 0 0 1 264 -254)">
</image>
<image style="overflow:visible;" width="313" height="314" xlink:href="FA82A76E.jpg"  transform="matrix(1 0 0 1 1147 -350)">
</image>
<image style="overflow:visible;" width="316" height="451" xlink:href="FA82A76E.png"  transform="matrix(1 0 0 1 730 -544)">
</image>
<image style="overflow:visible;" width="312" height="423" xlink:href="FA82A76A.jpg"  transform="matrix(1 0 0 1 142 -951)">
</image>
<image style="overflow:visible;" width="49" height="35" xlink:href="FA82A769.png"  transform="matrix(1 0 0 1 536 -546)">
</image>
</svg>
